<svg width="133" height="32" viewBox="0 0 133 32" fill="none" xmlns="http://www.w3.org/2000/svg">
<path fill-rule="evenodd" clip-rule="evenodd" d="M48.8651 6.95238C49.1984 7.13788 49.5031 7.36831 49.7703 7.63686C50.5403 8.41936 50.9638 9.46593 50.9492 10.5504C50.9674 11.6971 50.5018 12.8006 49.6614 13.6026C48.8211 14.4046 47.6799 14.8346 46.505 14.7919H42V0.431592H45.822C46.9246 0.398307 47.9939 0.802519 48.7856 1.55185C49.4656 2.22591 49.872 3.11759 49.9294 4.0616C49.9987 4.96457 49.7349 5.86197 49.1856 6.59189C49.0876 6.71928 48.9805 6.83975 48.8651 6.95238ZM48.2078 4.1734C48.1376 3.1444 47.3727 2.10628 45.8219 2.10628H43.7168V6.32722H46.4091C47.4852 6.1639 48.2614 5.23449 48.2078 4.1734ZM46.4979 13.1172H43.7168V7.99963H46.257C48.4604 7.99963 49.2393 9.36859 49.2393 10.5505C49.2393 11.7871 48.3949 13.1172 46.505 13.1172H46.4979ZM76.3583 2.04923H74.5221V14.7919H76.3583V2.04923ZM115.928 5.67742C115.931 5.28503 116.261 4.96888 116.666 4.97034C117.071 4.9718 117.399 5.29031 117.399 5.68271C117.399 6.07511 117.071 6.39363 116.666 6.3951C116.47 6.3951 116.282 6.31941 116.143 6.18474C116.004 6.05007 115.927 5.86752 115.928 5.67742ZM117.245 5.6774C117.238 5.36701 116.973 5.12087 116.652 5.12668C116.332 5.13249 116.076 5.38807 116.081 5.69851C116.085 6.00896 116.348 6.25755 116.668 6.25472C116.988 6.24324 117.239 5.98684 117.235 5.6774H117.245ZM116.844 5.95814C116.84 6.0053 116.848 6.05256 116.868 6.09585L116.994 6.09056C116.972 6.04133 116.963 5.98776 116.967 5.93431C116.967 5.77806 116.928 5.72774 116.824 5.70126C116.922 5.68394 116.99 5.59834 116.983 5.50264C116.983 5.35963 116.876 5.28283 116.69 5.28283H116.329V6.09585H116.474V5.77011H116.668C116.8 5.77011 116.844 5.80719 116.844 5.95814ZM116.685 5.64035C116.8 5.64035 116.857 5.59268 116.857 5.51588C116.857 5.43908 116.814 5.41524 116.699 5.41524H116.475V5.64035H116.685ZM60.764 14.7919V13.3112H60.7289C60.0412 14.452 58.8062 15.0338 57.4098 15.0338C54.5514 15.0338 52.2194 12.9324 52.2194 10.1786C52.2194 7.13036 54.4626 4.99479 57.3396 4.99479C58.7688 4.99479 59.971 5.51043 60.7289 6.5919H60.764V5.24805H62.6001V14.7874L60.764 14.7919ZM60.7989 10.0394C60.7989 8.1799 59.4235 6.63069 57.3932 6.63069C55.5571 6.63069 54.0554 8.16392 54.0554 10.0394C54.0554 11.8304 55.5571 13.3979 57.3932 13.3979C59.2785 13.3766 60.7946 11.8785 60.7919 10.0394H60.7989ZM71.0537 14.7919V9.59219C71.0537 7.57755 70.2421 6.62613 68.6188 6.62613C66.9954 6.62613 66.0458 7.78061 66.0458 9.56938V14.7874H64.2096V5.25261H65.9218V6.26792H65.9569C66.682 5.35528 67.6878 4.99479 68.8176 4.99479C71.1566 4.99479 72.8946 6.44132 72.8946 9.07655V14.7919H71.0537ZM97.8122 13.3112V14.7919L99.6483 14.7874V5.24805H97.8122V6.5919H97.7771C97.0169 5.51043 95.8169 4.99479 94.3878 4.99479C91.5107 4.99479 89.2676 7.13036 89.2676 10.1786C89.2676 12.9324 91.5973 15.0338 94.458 15.0338C95.852 15.0338 97.0894 14.452 97.7771 13.3112H97.8122ZM94.4389 6.63069C96.4692 6.63069 97.8469 8.1799 97.8469 10.0394C97.8496 11.882 96.3279 13.3816 94.4389 13.3979C92.6028 13.3979 91.1034 11.8304 91.1034 10.0394C91.1034 8.16392 92.6028 6.63069 94.4389 6.63069ZM102.313 6.88847V14.7919H104.149V6.88847H105.756V5.25257H104.149V2.05835H102.313V5.25257H100.989V6.88847H102.313ZM111.252 13.3979C109.753 13.3979 108.464 12.3825 108.041 10.7968H116.139C116.182 10.5007 116.2 10.2015 116.192 9.90246C116.206 8.59092 115.675 7.32976 114.721 6.40554C113.767 5.48132 112.47 4.97252 111.126 4.99476C108.539 4.99476 106.2 7.0961 106.2 10.1078C106.2 12.6563 108.424 15.0338 111.177 15.0338C113.285 15.0271 115.164 13.7352 115.879 11.8007H114.043C113.485 12.7935 112.413 13.407 111.252 13.3979ZM111.199 6.66532C112.82 6.66532 114.181 7.85599 114.356 9.4279H108.041C108.217 7.85599 109.578 6.66532 111.199 6.66532ZM87.9248 5.25945C86.1893 5.13397 85.525 5.97587 85.525 5.97587V5.25261H83.6888V14.7919H85.525V9.43705C85.5215 9.04997 85.5815 8.66485 85.7027 8.29625C86.098 7.1258 87.4009 6.74933 88.6687 7.21706L89.4242 5.6382C88.9523 5.42383 88.4441 5.29547 87.9248 5.25945ZM76.4329 10.0166L80.4819 14.7919H82.6478L78.5662 10.0166L82.1426 5.2526H80.0655L76.4329 10.0166Z" fill="#151515"/>
<path d="M50.72 30V22.91H48.84L46.76 28.03L44.63 22.91H42.81V30H44.13V25.07L46.17 30H47.32L49.36 25.03V30H50.72ZM55.8513 26.45C55.8513 24.85 56.9712 24.09 58.0613 24.09C59.1613 24.09 60.2812 24.85 60.2812 26.45C60.2812 28.05 59.1613 28.81 58.0613 28.81C56.9712 28.81 55.8513 28.05 55.8513 26.45ZM54.4213 26.46C54.4213 28.74 56.1413 30.15 58.0613 30.15C59.9913 30.15 61.7113 28.74 61.7113 26.46C61.7113 24.17 59.9913 22.76 58.0613 22.76C56.1413 22.76 54.4213 24.17 54.4213 26.46ZM68.9077 30H70.4477L68.9277 27.1C69.8577 26.83 70.4377 26.08 70.4377 25.09C70.4377 23.86 69.5577 22.91 68.1777 22.91H65.4077V30H66.7977V27.27H67.5177L68.9077 30ZM66.7977 26.08V24.11H67.9177C68.6177 24.11 69.0277 24.5 69.0277 25.1C69.0277 25.68 68.6177 26.08 67.9177 26.08H66.7977ZM79.3777 24.22V22.91H73.5077V24.22H75.7477V30H77.1377V24.22H79.3777ZM89.0835 30V26.31H85.5435V27.51H87.7835C87.7035 28.01 87.1935 28.89 85.8835 28.89C84.6935 28.89 83.6435 28.06 83.6435 26.46C83.6435 24.78 84.8035 24.05 85.8735 24.05C87.0235 24.05 87.6135 24.78 87.7935 25.41L89.1135 24.94C88.7635 23.85 87.7335 22.76 85.8735 22.76C83.9535 22.76 82.2435 24.17 82.2435 26.46C82.2435 28.75 83.8735 30.15 85.7835 30.15C86.8535 30.15 87.5535 29.67 87.8735 29.19L87.9635 30H89.0835ZM97.786 30H99.286L96.586 22.91H94.986L92.266 30H93.726L94.316 28.38H97.196L97.786 30ZM95.756 24.44L96.736 27.12H94.776L95.756 24.44ZM108.771 30V26.31H105.231V27.51H107.471C107.391 28.01 106.881 28.89 105.571 28.89C104.381 28.89 103.331 28.06 103.331 26.46C103.331 24.78 104.491 24.05 105.561 24.05C106.711 24.05 107.301 24.78 107.481 25.41L108.801 24.94C108.451 23.85 107.421 22.76 105.561 22.76C103.641 22.76 101.931 24.17 101.931 26.46C101.931 28.75 103.561 30.15 105.471 30.15C106.541 30.15 107.241 29.67 107.561 29.19L107.651 30H108.771ZM117.104 30V28.7H114.044V27.06H116.814V25.83H114.044V24.21H117.104V22.91H112.664V30H117.104ZM125.754 24.6C125.594 23.8 124.934 22.76 123.214 22.76C121.874 22.76 120.744 23.72 120.744 24.98C120.744 26.05 121.474 26.78 122.604 27.01L123.594 27.21C124.144 27.32 124.454 27.64 124.454 28.05C124.454 28.55 124.044 28.92 123.304 28.92C122.304 28.92 121.814 28.29 121.754 27.59L120.474 27.93C120.584 28.94 121.414 30.15 123.294 30.15C124.944 30.15 125.854 29.05 125.854 27.96C125.854 26.96 125.164 26.12 123.874 25.87L122.884 25.68C122.364 25.58 122.114 25.27 122.114 24.88C122.114 24.41 122.554 23.98 123.224 23.98C124.124 23.98 124.444 24.59 124.514 24.98L125.754 24.6Z" fill="#151515"/>
<rect width="32" height="32" rx="4" fill="#0157FF"/>
<path fill-rule="evenodd" clip-rule="evenodd" d="M20.9435 16.0306C20.6134 15.7043 20.237 15.4243 19.8254 15.1989C19.9679 15.0621 20.1002 14.9157 20.2212 14.7609C20.8997 13.874 21.2256 12.7836 21.1399 11.6864C21.069 10.5394 20.5671 9.45596 19.7271 8.63694C18.7493 7.72645 17.4285 7.23531 16.0666 7.27575H11.3457V24.7245H16.9102C18.3614 24.7763 19.771 24.2539 20.8089 23.2794C21.8469 22.3049 22.422 20.964 22.3996 19.5708C22.4176 18.253 21.8945 16.9814 20.9435 16.0306ZM16.067 9.31061C17.9826 9.31061 18.9273 10.572 19.014 11.8223C19.0802 13.1116 18.1215 14.2409 16.7922 14.4393H13.4668V9.31061H16.067ZM13.4668 22.6896H16.902H16.9107C19.2451 22.6896 20.2881 21.0734 20.2881 19.5708C20.2881 18.1348 19.326 16.4714 16.6044 16.4714H13.4668V22.6896Z" fill="white"/>
</svg>