<?xml version="1.0" encoding="UTF-8"?>
<svg width="119px" height="42px" viewBox="0 0 119 42" version="1.1" xmlns="http://www.w3.org/2000/svg" xmlns:xlink="http://www.w3.org/1999/xlink">
    <!-- Generator: Sketch 64 (93537) - https://sketch.com -->
    <title>Logo_Green_Black</title>
    <desc>Created with Sketch.</desc>
    <defs>
        <polygon id="path-1" points="0.000147670441 0.0477467758 32.3025643 0.0477467758 32.3025643 34.1923521 0.000147670441 34.1923521"></polygon>
        <polygon id="path-3" points="0.0233887667 0.145504607 19.1117621 0.145504607 19.1117621 27.5651489 0.0233887667 27.5651489"></polygon>
        <polygon id="path-5" points="0.0130918477 0.145750725 18.2795316 0.145750725 18.2795316 19.2341241 0.0130918477 19.2341241"></polygon>
    </defs>
    <g id="Page-1" stroke="none" stroke-width="1" fill="none" fill-rule="evenodd">
        <g id="Sage_Refinance_Step1_@2x" transform="translate(-128.000000, -16.000000)">
            <g id="Nav_Mobile_Refi_Flow">
                <g id="Logo_Green_Black" transform="translate(128.349995, 15.789999)">
                    <g id="Logo_Horizontal">
                        <g id="Group-3" transform="translate(0.000000, 0.080586)">
                            <mask id="mask-2" fill="white">
                                <use xlink:href="#path-1"></use>
                            </mask>
                            <g id="Clip-2"></g>
                            <path d="M8.15352493,21.1033365 C8.51285633,21.680728 9.92753915,24.1916177 8.53156125,25.9538183 C8.20028723,25.6122073 6.86140857,23.9834024 8.15352493,21.1033365 M13.9018429,16.2400567 C14.1381156,16.7308148 14.7292896,18.2025968 13.8629564,19.1393197 C13.7891212,19.0433339 13.6099477,18.7790038 13.5139619,18.385216 C13.4022246,17.9264531 13.3805663,17.184163 13.9018429,16.2400567 M19.8436092,12.5158082 C19.941564,13.0119809 20.1276287,14.4552133 19.153496,15.0744447 C19.1042726,14.9558161 19.0132091,14.6865637 19.0176392,14.3218177 C19.0225616,13.888651 19.1707243,13.226103 19.8436092,12.5158082 M21.608271,19.2185695 C21.9912297,18.894679 22.6803584,18.5323942 23.817913,18.6382246 C23.5929617,18.9325811 22.6862652,20.0253423 21.6053176,20.0253423 C21.4187606,20.0253423 21.2326958,19.9918704 21.0520457,19.9264031 C21.115544,19.792023 21.2809349,19.4952054 21.608271,19.2185695 M23.0451044,25.8179615 C22.7778209,25.930191 22.0064889,26.2186406 21.1819957,26.2186406 C20.3801452,26.2186406 19.753038,25.9474192 19.3188869,25.4128522 C19.6344094,25.1913466 21.0732118,24.3560241 23.0451044,25.8179615 M16.8916771,30.0546264 C17.6831907,30.1486433 18.8665231,30.5768875 20.0203215,32.0786959 C19.8564073,32.0988775 19.5586053,32.1274272 19.1859835,32.1274272 C18.1040514,32.1274272 16.1853202,31.8763874 15.463704,30.198359 C15.6404163,30.133384 16.17646,29.969962 16.8916771,30.0546264 M30.6393029,10.4937076 L30.4945859,10.6925705 L30.4867101,10.6876481 L30.6368417,10.4922309 L17.933246,0.749427486 C16.6106111,-0.215844961 14.8336434,-0.183849698 13.5070706,0.835568576 L1.61517005,10.4823862 C0.603627537,11.2586405 0.000147670441,12.513347 0.000147670441,13.8389353 L0.000147670441,28.6862137 C0.000147670441,30.9583695 1.72493842,32.8057267 3.88141908,32.8057267 L3.88289579,32.8057267 C3.94442514,32.8086801 4.00103214,32.8101568 4.07782077,32.8101568 C4.27963704,32.8101568 4.70738908,32.795882 5.30693107,32.699404 L5.53975813,32.6605174 C6.84122694,32.4099699 8.17764443,31.9034603 9.36836042,31.2148238 C10.7402188,30.6950239 11.8113217,30.58624 12.4684552,30.58624 C12.6673181,30.58624 12.8553518,30.5951002 13.0271417,30.6133129 L13.0896555,30.6202042 L13.1118061,30.6832102 C13.3667837,31.4013808 13.8983973,32.4168612 14.9822983,33.1788407 C15.9436329,33.8541868 17.1264731,34.1923521 18.5175287,34.1923521 C19.5054439,34.1923521 20.5996819,34.0215467 21.7938435,33.680428 L23.1568417,33.2925469 L22.3771418,32.0407938 C22.2855861,31.8926312 20.1020325,28.4031786 17.0698661,27.8474456 C15.9273891,27.6416914 14.8301978,27.8691039 13.809795,28.5247606 L13.7792765,28.5454345 L13.7389132,28.5375587 C13.5715534,28.5055635 13.3845042,28.4789828 13.1846568,28.4592934 L12.9675813,28.4381273 L13.1246042,28.278151 C13.3082078,28.0891328 13.4854123,27.9010991 13.6355439,27.7342315 C15.2131565,26.2338999 16.6312849,26.1280694 17.3386263,26.1989512 L17.388342,26.2038735 L17.4149227,26.2476824 C17.7673628,26.8270428 18.4195739,27.6077272 19.5251333,28.0359715 C21.1308032,28.659633 23.0938356,28.3135919 25.3551623,27.0081852 L26.5946095,26.2954292 L25.5648543,25.267643 C25.4659151,25.1701805 23.1140173,22.8763663 20.5868838,22.8763663 C20.4884368,22.8763663 20.3978656,22.8788275 20.3132012,22.8852265 C19.3602347,22.951186 18.5096529,23.3410359 17.7840988,24.0459162 L17.7521036,24.0779114 L17.704849,24.0715124 C17.3794818,24.0281957 17.0329485,24.018351 16.6716482,24.0414861 L16.3708927,24.060191 L16.5992897,23.8549291 C18.1975761,22.4220336 19.285415,21.8490723 19.7919246,21.6349501 L19.8337645,21.6172297 L19.87462,21.638888 C20.2344437,21.8274139 20.8123273,22.051873 21.5245911,22.051873 C21.7456045,22.051873 21.9725247,22.0297224 22.2004295,21.986898 C23.6810717,21.7048475 25.0307796,20.5274218 26.2121431,18.4876008 L26.951972,17.2068058 L25.574699,16.8666716 C25.2660678,16.7923441 22.5046306,16.181973 20.6178946,17.5262662 C19.9361494,18.0130864 19.4522826,18.6864637 19.180569,19.5272007 L19.1643252,19.5759319 L19.121993,19.5936524 C19.0132091,19.6379535 18.8950728,19.6901304 18.7700451,19.7501831 L18.5268811,19.8663505 L18.6371417,19.6098961 C18.9492186,18.8804042 19.2622799,18.083476 19.5679577,17.2397856 L19.5822326,17.200899 L19.6196424,17.1826863 C20.4264152,16.7844684 21.0230038,16.1716361 21.3916877,15.3628943 C22.4012613,13.146361 21.3916877,10.2313465 21.348371,10.10878 L20.8517061,8.68819037 L19.755007,9.65444728 C18.0572891,11.1478877 17.163883,12.7077798 17.098908,14.2908069 C17.0585447,15.2797066 17.3612691,16.0446395 17.6226458,16.5122625 L17.6472575,16.5555792 L17.6290449,16.6043104 C16.8793713,18.6461004 16.0115613,20.5249606 15.0497345,22.188222 L14.8597319,22.5170349 L14.8631775,22.1330917 C14.8661309,21.8564558 14.8602241,21.5837577 14.847426,21.3189354 L14.8449648,21.267743 L14.8813902,21.2347632 C15.3194792,20.8390064 15.8929327,20.1370796 16.1385579,19.0389038 C16.4983815,17.429296 16.0169759,15.5814465 14.7066468,13.5465479 L13.9028274,12.2947948 L13.059137,13.5150448 C12.9818561,13.6257977 11.1773233,16.2587616 11.5962151,18.7967243 C11.7429011,19.6866848 12.1391501,20.4540788 12.7731485,21.0777403 L12.8012059,21.1062899 L12.8041593,21.1481299 C12.8819324,22.1823152 12.9222957,24.8019888 11.6552833,26.7374561 C11.0596792,27.3512729 10.4906558,27.856798 9.86502533,28.3278667 L9.67206929,28.4740605 L9.70751019,28.2254819 C9.73212193,28.0536919 9.74738121,27.8764874 9.7527958,27.6978062 L9.75378027,27.6579352 L9.78134541,27.6284011 C10.2553675,27.1086011 10.8573707,26.215195 11.0390053,24.9078193 C11.3151491,22.9359267 10.5438171,20.756311 8.74814457,18.431486 L7.843417,17.2604594 L7.10161915,18.555037 C7.01941594,18.6992618 5.09773128,22.1291539 5.84543594,25.1061899 C6.12748648,26.2294698 6.73391976,27.1445343 7.64898425,27.8272639 L7.6991922,27.865166 L7.69033198,27.9291565 C7.65932118,28.1358951 7.60812877,28.3332813 7.53675472,28.5168849 C7.18333013,29.4329338 6.37114271,30.1107412 5.15532275,30.5222495 C4.49228247,30.6482616 4.09308005,30.6507227 3.98134275,30.6482616 L3.8420403,30.6462926 C2.83985024,30.6462926 2.02470941,29.7671613 2.02470941,28.6862137 L2.02470941,13.8389353 C2.02470941,13.2069058 2.31955806,12.6029337 2.81917638,12.2194828 L14.7105847,2.57217296 C15.3327695,2.0947052 16.1631696,2.07452357 16.7700951,2.51704266 L29.4850123,12.2677218 C29.9816772,12.6300067 30.2775103,13.234471 30.2775103,13.8852054 L30.2775103,30.2333076 C30.2775103,30.4612123 30.1071971,30.6462926 29.8970128,30.6462926 L26.2431539,30.6462926 C25.6849596,30.6462926 25.2311191,31.1306517 25.2311191,31.7262558 C25.2311191,32.3223521 25.6849596,32.8067112 26.2431539,32.8067112 L29.8970128,32.8067112 C31.2230934,32.8067112 32.3025643,31.6524206 32.3025643,30.2333076 L32.3025643,13.8852054 C32.3025643,12.5202383 31.6808717,11.2522414 30.6393029,10.4937076" id="Fill-1" fill="#4E7B57" mask="url(#mask-2)"></path>
                        </g>
                        <path d="M49.5334404,18.093033 L45.9460332,17.2710009 C42.1026639,16.3707034 41.6581758,14.4229303 41.6581758,13.0363049 C41.6581758,10.1045544 44.6642538,8.28968469 47.4503027,8.28968469 C50.607989,8.28968469 52.9746539,10.1650993 53.2064965,12.8497479 L53.2409529,13.258795 L55.8094341,13.258795 L55.7794078,12.7832962 C55.5106476,8.60028485 52.178218,5.78962413 47.4882048,5.78962413 C42.226707,5.78962413 39.0832956,9.47400162 39.0832956,13.0363049 C39.0832956,16.5114826 41.1984285,18.7570577 45.3701185,19.7110088 L48.9496499,20.531072 C51.3005634,21.1114168 54.1018716,22.4271604 54.1018716,25.4027198 C54.1018716,27.4902876 52.3805265,30.5962892 47.637352,30.5962892 C44.9423664,30.5962892 41.86393,28.8877422 41.467681,25.7207035 L41.4199342,25.3288846 L38.851453,25.3288846 L38.8991998,25.818166 C39.2363806,29.346505 42.4137563,33.096842 47.637352,33.096842 C51.1479706,33.096842 53.2714715,31.7102165 54.4346223,30.5470657 C55.8601343,29.1225382 56.6772441,27.2072526 56.6772441,25.289998 C56.6772441,21.7272025 54.2067176,19.2384634 49.5334404,18.093033" id="Fill-4" fill="#2B2E31"></path>
                        <path d="M67.9299778,30.5964861 C64.0767638,30.5964861 60.9422125,27.4279707 60.9422125,23.5339012 C60.9422125,19.6605055 64.0767638,16.5092183 67.9299778,16.5092183 C71.9348001,16.5092183 74.9546606,19.5935616 74.9546606,23.6835405 C74.9546606,27.5598896 71.8693329,30.5964861 67.9299778,30.5964861 L67.9299778,30.5964861 Z M74.9546606,17.3002396 C73.251036,15.2062728 70.6732023,14.0086655 67.8551581,14.0086655 C62.5557582,14.0086655 58.4042499,18.1926613 58.4042499,23.5339012 C58.4042499,28.8963071 62.5557582,33.0970389 67.8551581,33.0970389 C70.6274245,33.0970389 73.267772,31.8817112 74.9546606,29.8379523 L74.9546606,32.7234327 L77.4926233,32.7234327 L77.4926233,14.3822717 L74.9546606,14.3822717 L74.9546606,17.3002396 Z" id="Fill-6" fill="#2B2E31"></path>
                        <g id="Group-10" transform="translate(79.121568, 13.863161)">
                            <mask id="mask-4" fill="white">
                                <use xlink:href="#path-3"></use>
                            </mask>
                            <g id="Clip-9"></g>
                            <path d="M9.54862441,16.7333252 C5.69590262,16.7333252 2.5613514,13.5648098 2.5613514,9.67074025 C2.5613514,5.7973446 5.69590262,2.6460574 9.54862441,2.6460574 C13.553939,2.6460574 16.5737995,5.73040067 16.5737995,9.82037963 C16.5737995,13.6967287 13.4879795,16.7333252 9.54862441,16.7333252 L9.54862441,16.7333252 Z M16.5737995,3.41443593 C14.8647603,1.33474389 12.2874189,0.145504607 9.47429696,0.145504607 C4.17489708,0.145504607 0.0233887667,4.32950042 0.0233887667,9.67074025 C0.0233887667,15.0331462 4.17489708,19.233878 9.47429696,19.233878 C12.241641,19.233878 14.8819885,18.0274105 16.5737995,15.9984186 C16.5531256,22.2680133 14.3031204,25.0648914 9.28724773,25.0648914 C7.02050647,25.0648914 4.99053015,23.9795137 3.71761095,22.0863787 L3.4764159,21.7295084 L1.33716345,23.0585424 L1.59214108,23.4419933 C3.32579205,26.0621592 6.13103819,27.5654442 9.28724773,27.5654442 C15.990009,27.5654442 19.1117621,23.850056 19.1117621,15.8728988 L19.1117621,0.519110822 L16.5737995,0.519110822 L16.5737995,3.41443593 Z" id="Fill-8" fill="#2B2E31" mask="url(#mask-4)"></path>
                        </g>
                        <g id="Group-13" transform="translate(99.691430, 13.863161)">
                            <mask id="mask-6" fill="white">
                                <use xlink:href="#path-5"></use>
                            </mask>
                            <g id="Clip-12"></g>
                            <path d="M2.64211792,8.47682474 C3.14616636,4.87809611 5.68314453,2.64630352 9.27744305,2.64630352 C12.7723101,2.64630352 15.2866455,4.93224194 15.700615,8.47682474 L2.64211792,8.47682474 Z M9.27744305,0.145750725 C3.9091303,0.145750725 0.0130918477,4.13580603 0.0130918477,9.63406876 C0.0130918477,15.196322 3.9091303,19.2341241 9.27744305,19.2341241 C12.7068429,19.2341241 15.7011072,17.5713549 17.2870877,14.7862904 L17.520407,14.3767511 L15.360973,13.2967879 L15.3102728,13.2711917 L15.0971351,13.6231396 C13.9142949,15.5709127 11.7528919,16.7330791 9.31485289,16.7330791 C5.69938828,16.7330791 3.08365254,14.4033318 2.63374993,10.7903283 L18.1740949,10.7903283 L18.2366087,10.4167221 C18.2799253,10.1563299 18.2799253,9.87870946 18.2799253,9.63406876 C18.2799253,4.04720376 14.5778274,0.145750725 9.27744305,0.145750725 L9.27744305,0.145750725 Z" id="Fill-11" fill="#2B2E31" mask="url(#mask-6)"></path>
                        </g>
                        <polygon id="Fill-14" fill="#4E7B57" points="43.3052919 40.7363261 43.0045365 38.1663682 41.9939784 40.2672263 41.3378294 40.2672263 40.3144733 38.1663682 40.0137178 40.7363261 39.1591982 40.7363261 39.6706301 36.5897401 40.380925 36.5897401 41.6627044 39.3103219 42.9326702 36.5897401 43.6547786 36.5897401 44.1598115 40.7363261"></polygon>
                        <path d="M48.8349592,38.6659373 C48.8349592,37.9197093 48.3058068,37.3241052 47.5654857,37.3241052 C46.8192577,37.3241052 46.2955199,37.9197093 46.2955199,38.6659373 C46.2955199,39.4126575 46.8192577,40.0082616 47.5654857,40.0082616 C48.3058068,40.0082616 48.8349592,39.4126575 48.8349592,38.6659373 M45.459213,38.6659373 C45.459213,37.4865427 46.3855989,36.5355451 47.5654857,36.5355451 C48.7389735,36.5355451 49.677173,37.4865427 49.677173,38.6659373 C49.677173,39.8399173 48.7389735,40.7904227 47.5654857,40.7904227 C46.3855989,40.7904227 45.459213,39.8399173 45.459213,38.6659373" id="Fill-16" fill="#4E7B57"></path>
                        <path d="M52.0534857,38.575563 L52.7214483,38.575563 C53.1910403,38.575563 53.389411,38.2930202 53.389411,37.9622384 C53.389411,37.6309644 53.1792267,37.330209 52.7879,37.330209 L52.0534857,37.330209 L52.0534857,38.575563 Z M52.3365207,39.2499247 L52.0534857,39.2499247 L52.0534857,40.7364738 L51.2171788,40.7364738 L51.2171788,36.5898878 L52.8720722,36.5898878 C53.8225776,36.5898878 54.2316247,37.2637573 54.2316247,37.9440257 C54.2316247,38.533723 53.9254547,39.0628755 53.2269735,39.2075925 L54.3044755,40.7364738 L53.3234515,40.7364738 L52.3365207,39.2499247 Z" id="Fill-18" fill="#4E7B57"></path>
                        <polygon id="Fill-20" fill="#4E7B57" points="58.4919661 37.3301105 57.3489969 37.3301105 57.3489969 40.7363753 56.5121978 40.7363753 56.5121978 37.3301105 55.3687363 37.3301105 55.3687363 36.5897894 58.4919661 36.5897894"></polygon>
                        <path d="M59.490366,38.6659373 C59.490366,37.4865427 60.4172441,36.5355451 61.6089446,36.5355451 C62.2340828,36.5355451 62.7819401,36.7944606 63.1432405,37.1980931 L62.5358227,37.7213387 C62.3005345,37.46833 61.9697527,37.3122916 61.6089446,37.3122916 C60.8868361,37.3122916 60.3266729,37.9261084 60.3266729,38.6659373 C60.3266729,39.4062584 60.8868361,40.0441948 61.6089446,40.0441948 C62.1504029,40.0441948 62.5771704,39.7852792 62.6854621,39.3526049 C62.6982602,39.3220863 62.7036748,39.2861532 62.7095816,39.25022 L61.5360938,39.25022 L61.5360938,38.5699515 L63.6246461,38.5699515 C63.6246461,40.1042474 62.8001528,40.7904227 61.6089446,40.7904227 C60.4172441,40.7904227 59.490366,39.8399173 59.490366,38.6659373" id="Fill-22" fill="#4E7B57"></path>
                        <path d="M67.0181128,39.0149318 L66.4884682,37.4565164 L65.9642381,39.0149318 L67.0181128,39.0149318 Z M67.2706293,39.7429471 L65.7181207,39.7429471 L65.3873389,40.7362769 L64.4968862,40.7362769 L66.0434879,36.5896909 L66.9462465,36.5896909 L68.4864492,40.7362769 L67.6073179,40.7362769 L67.2706293,39.7429471 Z" id="Fill-24" fill="#4E7B57"></path>
                        <path d="M69.4186927,38.6659373 C69.4186927,37.4865427 70.3455708,36.5355451 71.5372713,36.5355451 C72.1624095,36.5355451 72.7102668,36.7944606 73.0710749,37.1980931 L72.4641494,37.7213387 C72.2288612,37.46833 71.8980794,37.3122916 71.5372713,37.3122916 C70.8146706,37.3122916 70.2549996,37.9261084 70.2549996,38.6659373 C70.2549996,39.4062584 70.8146706,40.0441948 71.5372713,40.0441948 C72.0787296,40.0441948 72.5054972,39.7852792 72.6137888,39.3526049 C72.6265869,39.3220863 72.6320015,39.2861532 72.6379083,39.25022 L71.4644206,39.25022 L71.4644206,38.5699515 L73.5529728,38.5699515 C73.5529728,40.1042474 72.7284795,40.7904227 71.5372713,40.7904227 C70.3455708,40.7904227 69.4186927,39.8399173 69.4186927,38.6659373" id="Fill-26" fill="#4E7B57"></path>
                        <polygon id="Fill-28" fill="#4E7B57" points="77.6496954 39.9960542 77.6496954 40.7363753 74.9955653 40.7363753 74.9955653 36.5897894 77.5960418 36.5897894 77.5960418 37.3301105 75.8323645 37.3301105 75.8323645 38.3170413 77.3794585 38.3170413 77.3794585 39.0691761 75.8323645 39.0691761 75.8323645 39.9960542"></polygon>
                    </g>
                </g>
            </g>
        </g>
    </g>
</svg>